<?xml version="1.0" encoding="iso-8859-1"?>
<!-- Generator: Adobe Illustrator 18.0.0, SVG Export Plug-In . SVG Version: 6.00 Build 0)  -->
<!DOCTYPE svg PUBLIC "-//W3C//DTD SVG 1.1//EN" "http://www.w3.org/Graphics/SVG/1.1/DTD/svg11.dtd">
<svg version="1.1" id="Capa_1" xmlns="http://www.w3.org/2000/svg" xmlns:xlink="http://www.w3.org/1999/xlink" x="0px" y="0px"
	 viewBox="0 0 293.111 293.111" style="enable-background:new 0 0 293.111 293.111;" xml:space="preserve">
<g>
	<path d="M254.556,165.641c0-40.149-24.176-74.738-58.703-89.956c-0.043-16.138-13.164-29.254-29.289-29.254h-48.595V26.229
		c0-4.143-3.357-7.5-7.5-7.5h-7.917C100.644,8.096,91.344,0,80.186,0S59.728,8.096,57.82,18.729h-7.919c-4.143,0-7.5,3.357-7.5,7.5
		v136.496c0,4.143,3.357,7.5,7.5,7.5h0.291v23.838c0,4.143,3.357,7.5,7.5,7.5h44.989c4.143,0,7.5-3.357,7.5-7.5v-23.838h0.287
		c4.143,0,7.5-3.357,7.5-7.5v-57.621h31.035v9.872c0,4.143,3.357,7.5,7.5,7.5c23.59,0,42.782,19.236,42.782,42.881
		c0,23.65-18.792,42.177-42.782,42.177c-4.143,0-7.5,3.357-7.5,7.5v8.518H48.388c-4.143,0-7.5,3.357-7.5,7.5
		c0,4.143,3.357,7.5,7.5,7.5h100.616v9.042H46.056c-4.142,0-7.5,3.357-7.5,7.5v30.518c0,4.143,3.358,7.5,7.5,7.5h156.133
		c4.143,0,7.5-3.357,7.5-7.5v-30.518c0-2.447-1.177-4.613-2.989-5.982c6.878-4.027,13.292-8.906,19.09-14.603
		C244.34,216.283,254.556,191.825,254.556,165.641z M80.186,15c2.79,0,5.233,1.497,6.593,3.729H73.594
		C74.953,16.497,77.396,15,80.186,15z M95.182,186.563H65.192v-16.338h29.989V186.563z M110.469,90.104c-4.143,0-7.5,3.357-7.5,7.5
		v57.621H57.401V33.729h45.567v20.202c0,4.143,3.357,7.5,7.5,7.5h56.095c7.88,0,14.291,6.431,14.291,14.334
		c0,7.906-6.411,14.339-14.291,14.339H110.469z M194.689,278.111H53.556v-15.518h141.133V278.111z M164.004,247.272v-25.207
		c12.601-1.586,24.225-7.159,33.311-16.087c10.944-10.753,16.972-25.18,16.972-40.622c0-29.369-21.952-53.7-50.282-57.396v-2.857
		h2.56c10.829,0,20.297-5.921,25.365-14.695c28.119,13.348,47.627,42.036,47.627,75.232c0,22.128-8.622,42.786-24.279,58.168
		C201.43,237.414,183.445,245.597,164.004,247.272z"/>
	<path d="M172.253,76.161c0-1.979-0.8-3.91-2.2-5.31c-1.4-1.391-3.33-2.19-5.3-2.19c-1.97,0-3.91,0.8-5.3,2.19
		c-1.4,1.399-2.2,3.33-2.2,5.31c0,1.971,0.8,3.91,2.2,5.3c1.39,1.4,3.33,2.2,5.3,2.2c1.97,0,3.91-0.8,5.3-2.2
		C171.453,80.062,172.253,78.132,172.253,76.161z"/>
</g>
<g>
</g>
<g>
</g>
<g>
</g>
<g>
</g>
<g>
</g>
<g>
</g>
<g>
</g>
<g>
</g>
<g>
</g>
<g>
</g>
<g>
</g>
<g>
</g>
<g>
</g>
<g>
</g>
<g>
</g>
</svg>
