<svg xmlns="http://www.w3.org/2000/svg" width="1365.999" height="487.998" viewBox="0 0 1365.999 487.998"><path d="M-13628.714,465.535c-28.706,11.744-62.024,18.463-97.574,18.463s-68.869-6.723-97.567-18.46c-28.7,11.737-62.031,18.46-97.575,18.46s-68.868-6.723-97.566-18.46c-28.7,11.737-62.032,18.46-97.571,18.46s-68.868-6.723-97.57-18.46c-28.7,11.737-62.032,18.46-97.571,18.46s-68.868-6.719-97.574-18.463c-28.706,11.744-62.024,18.463-97.571,18.463-107.772,0-195.146-61.784-195.146-138V-4h1366V346c0,76.215-87.368,138-195.142,138C-13566.687,484-13600.008,477.279-13628.714,465.535Z" transform="translate(14702.001 4)" fill="#0799d6"/></svg>