<?xml version="1.0" standalone="no"?><svg xmlns="http://www.w3.org/2000/svg" viewBox="0 0 1440 320"><path fill="#0099ff" fill-opacity="10" d="M0,192L30,181.3C60,171,120,149,180,144C240,139,300,149,360,160C420,171,480,181,540,186.7C600,192,660,192,720,208C780,224,840,256,900,250.7C960,245,1020,203,1080,192C1140,181,1200,203,1260,197.3C1320,192,1380,160,1410,144L1440,128L1440,0L1410,0C1380,0,1320,0,1260,0C1200,0,1140,0,1080,0C1020,0,960,0,900,0C840,0,780,0,720,0C660,0,600,0,540,0C480,0,420,0,360,0C300,0,240,0,180,0C120,0,60,0,30,0L0,0Z"></path></svg>