<?xml version="1.0" standalone="no"?>
<svg xmlns:xlink="http://www.w3.org/1999/xlink" id="wave" style="transform:rotate(180deg); transition: 0.3s" viewBox="0 0 1440 430" version="1.1" xmlns="http://www.w3.org/2000/svg"><defs><linearGradient id="sw-gradient-0" x1="0" x2="0" y1="1" y2="0"><stop stop-color="rgba(110.756, 214.586, 246.263, 1)" offset="0%"/><stop stop-color="rgba(75.252, 155.827, 203.004, 1)" offset="100%"/></linearGradient></defs><path style="transform:translate(0, 0px); opacity:1" fill="url(#sw-gradient-0)" d="M0,43L48,50.2C96,57,192,72,288,86C384,100,480,115,576,100.3C672,86,768,43,864,35.8C960,29,1056,57,1152,86C1248,115,1344,143,1440,129C1536,115,1632,57,1728,71.7C1824,86,1920,172,2016,236.5C2112,301,2208,344,2304,344C2400,344,2496,301,2592,272.3C2688,244,2784,229,2880,215C2976,201,3072,186,3168,215C3264,244,3360,315,3456,286.7C3552,258,3648,129,3744,114.7C3840,100,3936,201,4032,265.2C4128,330,4224,358,4320,351.2C4416,344,4512,301,4608,250.8C4704,201,4800,143,4896,136.2C4992,129,5088,172,5184,179.2C5280,186,5376,158,5472,121.8C5568,86,5664,43,5760,35.8C5856,29,5952,57,6048,121.8C6144,186,6240,287,6336,315.3C6432,344,6528,301,6624,258C6720,215,6816,172,6864,150.5L6912,129L6912,430L6864,430C6816,430,6720,430,6624,430C6528,430,6432,430,6336,430C6240,430,6144,430,6048,430C5952,430,5856,430,5760,430C5664,430,5568,430,5472,430C5376,430,5280,430,5184,430C5088,430,4992,430,4896,430C4800,430,4704,430,4608,430C4512,430,4416,430,4320,430C4224,430,4128,430,4032,430C3936,430,3840,430,3744,430C3648,430,3552,430,3456,430C3360,430,3264,430,3168,430C3072,430,2976,430,2880,430C2784,430,2688,430,2592,430C2496,430,2400,430,2304,430C2208,430,2112,430,2016,430C1920,430,1824,430,1728,430C1632,430,1536,430,1440,430C1344,430,1248,430,1152,430C1056,430,960,430,864,430C768,430,672,430,576,430C480,430,384,430,288,430C192,430,96,430,48,430L0,430Z"/></svg>